PathFileType	4	(X/Y/Z)	c:/Users/goper/Files/vsCode/490R/osim_files/A05/A05_Slow_04.trc
DataRate	CameraRate	NumFrames	NumMarkers	Units                	OrigDataRate	OrigDataStartFrame	OrigNumFrames
250.00	250.00	9	36	mm	250.0	1151	3068
                Frame#	Time	LPSIS			LASIS			LTH1			LTH2			LTH3			LTH4			LLFE			LMFE			LSH1			LSH2			LSH3			LSH4			LLMAL			LMMAL			LCAL			LMTP5			LTOE			LMTP1			RPSIS			RASIS			RTH1			RTH2			RTH3			RTH4			RLFE			RMFE			RSH1			RSH2			RSH3			RSH4			RLMAL			RMMAL			RCAL			RMTP1			RTOE			RMTP5		
		X1	Y1	Z1	X2	Y2	Z2	X3	Y3	Z3	X4	Y4	Z4	X5	Y5	Z5	X6	Y6	Z6	X7	Y7	Z7	X8	Y8	Z8	X9	Y9	Z9	X10	Y10	Z10	X11	Y11	Z11	X12	Y12	Z12	X13	Y13	Z13	X14	Y14	Z14	X15	Y15	Z15	X16	Y16	Z16	X17	Y17	Z17	X18	Y18	Z18	X19	Y19	Z19	X20	Y20	Z20	X21	Y21	Z21	X22	Y22	Z22	X23	Y23	Z23	X24	Y24	Z24	X25	Y25	Z25	X26	Y26	Z26	X27	Y27	Z27	X28	Y28	Z28	X29	Y29	Z29	X30	Y30	Z30	X31	Y31	Z31	X32	Y32	Z32	X33	Y33	Z33	X34	Y34	Z34	X35	Y35	Z35	X36	Y36	Z36

1151	4.60000	236.39716	1002.71240	331.14581	46.31961	957.20990	442.35141	236.16895	708.88824	498.34741	237.26375	665.34937	501.48740	177.24374	699.50183	517.13855	186.34612	656.97290	515.43085	230.89322	484.25156	496.85480	233.57452	479.75571	397.16061	303.56281	411.76083	509.72348	320.82840	370.33914	515.63409	251.25241	380.56430	500.08420	275.57224	342.88623	506.43658	395.41144	154.06787	518.55139	400.80429	157.67578	427.69324	493.31711	132.47704	472.80637	296.54706	52.44857	538.31378	249.36487	55.44586	473.48346	288.85645	64.28137	428.38641	227.86707	1002.41968	249.05695	41.76401	957.61169	145.60933	-13.88957	602.15228	72.76171	-33.36705	566.50018	83.83733	-62.70601	631.22412	95.81559	-75.39520	586.49780	103.54693	-18.03285	522.73175	84.87078	-44.14100	498.02286	224.70717	-29.04249	259.56235	73.37986	-35.52102	212.41415	80.70238	-89.66806	262.69589	81.78429	-87.22823	212.82622	85.03119	-52.59292	104.57534	97.82276	-101.70324	132.59915	180.33080	-10.53730	65.60332	180.62340	-222.13316	57.01802	161.68369	-249.32297	68.53018	105.39319	-179.00842	44.46722	50.78741
1152	4.60400	233.09753	1003.64838	330.11285	43.20282	957.95428	441.00931	232.33669	709.34003	497.47406	233.24199	665.76782	500.62155	173.40988	700.19543	516.19916	182.31807	657.54993	514.51752	226.66428	484.54327	496.45807	229.15277	480.05231	396.43512	299.68411	412.81070	509.15854	317.25650	371.47644	515.11847	247.64735	381.14474	499.51837	272.31146	343.59180	505.90536	393.45001	155.99115	518.17450	398.76709	159.47789	427.33173	491.66525	135.51837	472.45663	295.92557	53.17937	538.23242	248.78566	55.33507	473.32043	288.13870	64.70968	428.21246	224.45749	1003.37836	248.05257	38.42647	956.83051	146.35205	-15.79303	602.08698	71.81530	-35.43343	566.47455	82.96184	-66.28329	630.13196	95.35362	-77.47195	586.70551	102.32202	-20.48035	522.95050	84.28709	-47.69105	498.83606	223.69365	-30.43672	259.86719	73.24173	-36.72116	212.70155	80.75475	-91.33394	262.60071	81.79294	-88.42471	212.81532	85.00689	-52.95037	104.79545	97.87993	-102.17397	132.58742	180.33858	-10.67327	65.74265	180.64015	-222.30174	56.84223	161.79224	-249.57043	68.22969	105.51184	-179.10231	44.45227	50.86062
1153	4.60800	229.85722	1004.65656	328.94064	39.68878	958.05133	439.62213	229.03136	709.49078	496.18948	229.26161	666.22327	499.71317	169.39503	700.81793	515.09619	178.22285	658.13928	513.52258	222.03671	484.96753	495.72827	224.59900	480.38867	395.71182	295.61868	413.83899	508.52271	313.55441	372.71957	514.49908	243.84244	381.67694	498.87695	268.80835	344.47943	505.21072	391.60327	158.03601	517.83569	397.13550	161.69400	426.90622	489.93900	138.64128	472.05331	295.01590	53.92104	537.69666	248.19872	55.35680	473.38608	287.44928	65.12715	428.14520	221.26257	1004.44391	246.88734	35.16081	957.91644	145.03801	-17.14897	602.06134	71.05459	-36.95695	566.44763	82.08270	-66.81545	631.11621	93.14541	-79.24204	586.78796	100.69443	-22.60728	523.07733	83.92887	-50.68960	499.90158	222.87157	-31.68263	260.04254	73.30133	-37.65968	212.92001	80.88763	-92.44215	262.67615	81.51704	-88.99446	214.10539	84.26595	-53.21312	105.03365	98.03132	-102.64880	132.54156	180.51108	-10.75250	65.87936	180.71439	-222.41451	56.63935	161.91452	-249.77840	67.97256	105.65961	-179.21851	44.50979	50.95567
1154	4.61200	226.68730	1005.71198	327.66232	36.76759	958.90155	438.31134	224.59183	710.07953	495.59106	225.14139	666.53900	498.78546	165.57048	701.46899	514.13916	174.08623	658.75616	512.51898	217.14847	485.29883	494.99771	219.80963	480.64551	394.92709	291.46542	414.88156	507.84259	309.73270	373.91931	513.86804	239.97350	382.25134	498.20514	265.22110	345.28125	504.66269	389.50647	160.03215	517.34290	394.46161	163.18312	426.32715	488.15607	141.83482	471.48315	294.56918	54.67130	538.01971	247.50645	55.39868	473.31390	288.16699	67.32982	425.90491	217.95619	1005.46857	245.63309	31.92559	958.98169	143.81758	-18.32376	601.90839	70.58424	-38.18756	566.34912	81.25127	-70.42906	628.78156	94.77972	-80.27908	586.56775	100.40639	-24.32827	523.22760	83.57211	-53.51574	500.98810	222.03987	-32.64397	260.17978	73.39955	-38.52902	212.99249	81.14198	-93.58264	262.37863	81.54527	-89.95375	213.89200	84.29672	-53.48112	105.18687	98.23199	-103.06242	132.44641	180.72408	-10.82685	65.96509	180.79593	-222.81683	56.80497	161.62875	-249.98685	67.74887	105.84338	-179.33609	44.55871	51.05396
1155	4.61600	223.56290	1006.75012	326.29666	33.84542	959.77942	437.03876	220.64459	710.40851	494.62369	221.01616	666.88293	497.86307	161.48640	702.11792	513.03021	169.90967	659.32257	511.52969	212.10469	485.67020	494.18704	214.88930	480.89050	394.22238	287.09384	415.85663	507.17828	305.75357	375.23959	513.14532	235.89407	382.68259	497.47607	261.59784	346.09525	503.97049	387.48599	162.18498	516.84528	392.32291	165.05975	425.71313	486.23300	145.11301	470.94308	293.81384	55.53170	537.83911	246.76349	55.42373	473.19131	285.59964	65.87402	428.01263	214.72011	1006.50732	244.29489	28.75635	959.98938	142.48895	-19.18224	601.69214	70.31914	-39.24783	566.13495	80.58434	-71.46516	628.59930	93.79817	-81.56679	586.35785	99.16351	-25.82906	523.32172	83.37594	-56.37358	501.08218	221.65396	-33.46796	260.29718	73.62487	-39.14641	213.02745	81.37518	-94.30784	263.56210	80.21117	-90.54475	213.71136	84.33028	-53.26714	105.56952	98.48189	-103.38219	132.34451	180.95166	-10.89014	65.96746	180.87366	-222.99355	56.64228	161.78790	-250.13596	67.54662	106.01336	-179.37424	44.64347	51.15209
1156	4.62000	220.47487	1007.82660	324.80270	31.00930	960.67529	435.65262	216.52840	710.62280	493.50473	216.71472	667.15790	496.85388	157.50160	702.67645	511.99216	165.64592	659.95544	510.50647	206.92241	485.92432	493.41440	209.74266	481.08194	393.39481	282.63449	416.92093	506.45688	301.65085	376.41733	512.48633	231.83365	383.37442	496.85983	257.81390	346.92886	503.43497	385.33411	164.36110	516.18933	390.37051	167.38612	425.04959	484.27164	148.47701	470.26526	293.14966	56.46047	537.64716	245.97839	55.50283	473.06931	284.67493	66.39079	427.70013	211.40395	1007.55524	242.85246	25.47308	960.93683	141.13600	-19.92937	601.56927	70.13697	-40.09243	565.86646	80.09890	-72.81276	628.19873	93.21217	-82.59978	586.04980	98.17897	-27.09506	523.51428	83.18574	-58.52486	501.64325	221.29504	-34.13715	260.41910	73.85263	-39.69385	213.19235	81.65335	-95.15560	262.21005	81.31551	-91.20599	212.67136	85.07685	-53.45700	105.68620	98.66366	-103.58115	132.28786	181.20206	-10.90950	65.98748	180.92987	-223.05295	56.42938	162.08615	-249.84328	67.54382	105.82637	-179.47546	44.69466	51.24920
1157	4.62400	217.47946	1008.83740	323.24127	27.03479	962.87030	433.99551	212.51260	710.81299	492.48047	212.43588	667.42126	495.88788	153.38489	703.32013	510.87119	161.28186	660.47955	509.47992	201.52589	486.17996	492.54498	204.46628	481.25745	392.58646	277.96542	417.89679	505.65536	297.41666	377.63379	511.76855	227.36163	383.73401	495.97836	253.83199	347.74969	502.64178	383.14667	166.63040	515.48853	388.16171	169.52798	424.27753	482.22668	151.90738	469.50015	292.33768	57.45803	537.45612	245.23619	56.07793	472.36615	283.84418	66.98460	427.41962	208.20200	1008.55273	241.36818	22.24871	961.72955	139.85855	-20.62260	601.46320	70.06498	-40.70055	565.64343	79.76078	-73.67685	627.81750	92.40723	-83.52267	585.57678	97.30122	-28.29093	523.71448	83.09708	-60.26640	502.17554	221.03119	-34.77468	260.46396	74.01292	-40.09213	213.27211	81.88749	-95.81345	261.95920	81.41405	-91.69274	212.53320	85.14339	-54.00826	105.43616	98.80322	-104.07140	131.89131	181.30573	-10.97233	65.96051	180.99992	-223.10695	55.95970	162.54819	-249.94446	67.39731	105.95583	-179.50700	44.75202	51.32774
1158	4.62800	214.45509	1009.83856	321.64166	23.64391	963.16718	432.91394	208.47633	711.05176	491.50266	208.12483	667.61725	494.89890	149.37616	703.93579	509.86823	156.94496	661.06378	508.48178	195.98688	486.38159	491.74490	198.97433	481.45023	391.76953	273.18484	418.89584	504.88223	293.05832	379.00372	510.91458	223.00993	384.18723	495.30273	249.87460	348.47754	501.94141	380.85144	168.89304	514.72589	385.49609	171.36803	423.50772	480.05292	155.37328	468.66479	291.63702	58.55801	537.23639	244.34357	55.80812	472.84503	282.82071	67.51585	427.18741	204.97888	1009.57147	239.84659	19.07084	962.42920	138.59811	-21.45753	601.32281	70.15540	-41.40369	565.39581	79.61817	-75.05495	627.34796	91.85392	-84.57033	585.03705	96.57478	-29.28398	523.88623	82.94697	-61.89571	501.76450	220.78046	-35.48183	260.53030	74.20802	-40.57950	213.30933	81.97877	-96.50636	261.73468	81.53254	-92.17879	212.42081	85.20886	-54.13934	105.48186	98.95466	-104.19562	131.83501	181.47491	-11.00091	65.96154	181.04268	-223.19272	55.91383	162.61960	-249.96848	67.30592	106.03728	-179.52919	44.78817	51.38936
1159	4.63200	211.59250	1010.85370	319.97516	21.28742	965.02850	431.34198	204.41069	711.25427	490.46902	203.63162	667.75342	493.88397	145.10979	704.50720	508.73889	152.43698	661.56055	507.40561	190.40453	486.61758	490.90543	193.36163	481.59677	390.92618	268.39636	420.00452	504.00082	288.38672	380.11438	509.89322	218.50696	384.75674	494.51501	245.81973	349.49142	501.79745	378.55139	171.27448	513.88831	383.35861	173.92783	422.59387	477.87109	158.96349	467.66196	290.88907	59.70172	536.91669	243.48357	56.04641	472.57306	281.62241	68.02106	427.05090	201.85094	1010.58667	238.26843	15.93064	962.98462	137.49571	-22.53699	601.25336	70.32437	-42.23939	565.17230	79.67200	-76.53269	626.87085	91.49953	-85.71519	584.45209	96.17964	-30.35944	524.02100	82.78799	-63.09301	501.73175	220.89151	-36.04268	260.68042	74.23779	-41.16854	213.43625	82.03516	-97.12980	261.78058	81.41104	-92.81611	213.85605	83.27672	-54.22680	105.56254	99.04530	-103.86398	132.14668	181.70697	-10.99824	65.98614	181.07077	-223.22800	55.78593	162.66121	-249.99677	67.22325	106.12587	-179.55106	44.83219	51.43021
